<?xml version="1.0" encoding="UTF-8"?>
<svg id="Layer_1" xmlns="http://www.w3.org/2000/svg" version="1.1" viewBox="0 0 252.28 144.57">
  <!-- Generator: Adobe Illustrator 29.6.1, SVG Export Plug-In . SVG Version: 2.1.1 Build 9)  -->
  <defs>
    <style>
      .st0 {
        fill: #bb913a;
      }
    </style>
  </defs>
  <path class="st0" d="M31.32-28.38c-.37-.65-.58-1.41-.58-2.22,0-2.49,2.02-4.5,4.5-4.5s4.5,2.02,4.5,4.5c0,.82-.22,1.59-.6,2.25h-7.87"/>
  <path class="st0" d="M-31.32-28.38c.37-.65.58-1.41.58-2.22,0-2.49-2.02-4.5-4.5-4.5s-4.5,2.02-4.5,4.5c0,.82.22,1.59.6,2.25h7.87"/>
  <rect class="st0" x="-19.84" y="-28.35" width="39.69" height="28.35"/>
  <polygon class="st0" points="31.35 -28.35 0 -340.16 -31.35 -28.35 -1.95 -28.35 -1.95 -141.53 1.95 -141.53 1.95 -28.35 31.35 -28.35"/>
</svg>