<?xml version="1.0" encoding="UTF-8"?>
<svg id="Layer_1" xmlns="http://www.w3.org/2000/svg" version="1.1" viewBox="0 0 252.28 144.57">
  <!-- Generator: Adobe Illustrator 29.6.1, SVG Export Plug-In . SVG Version: 2.1.1 Build 9)  -->
  <defs>
    <style>
      .st0 {
        fill: #fff;
      }

      .st1 {
        fill: #bb913a;
      }
    </style>
  </defs>
  <path class="st0" d="M100.1-13.56"/>
  <g>
    <rect class="st1" x="-19.84" y="-28.35" width="39.69" height="28.35"/>
    <rect class="st1" x="-24.89" y="-32.66" width="3.91" height="25.68" transform="translate(-14.09 9.18) rotate(32.21)"/>
    <rect class="st1" x="20.99" y="-32.66" width="3.91" height="25.68" transform="translate(31.79 -48.81) rotate(147.79)"/>
    <path class="st1" d="M36.09-37.73c-1.56.19-2.95.98-3.95,2.13h-.02s-.1.09-.14.14c-.12.13-.24.24-.37.36-.08.07-.15.13-.24.19-.19.15-.39.28-.6.4-.01,0-.03.02-.04.03h0c-.7.38-1.5.63-2.36.63-2.71,0-4.91-2.2-4.91-4.91,0-.9.24-1.73.66-2.46l5.09-8.46h0s4.51-7.52,4.51-7.52l-5.71-4.4h0S0-340.16,0-340.16L-28-61.62l-5.71,4.4,4.51,7.51h0s5.09,8.48,5.09,8.48c.42.72.66,1.56.66,2.46,0,2.71-2.2,4.91-4.91,4.91-.86,0-1.66-.24-2.36-.63h0s-.03-.01-.04-.02c-.21-.12-.41-.25-.6-.4-.08-.06-.16-.13-.24-.19-.13-.11-.25-.23-.37-.36-.04-.05-.1-.09-.14-.14h-.02c-1-1.14-2.4-1.94-3.95-2.13-3.82-.46-7.06,2.51-7.06,6.24,0,.01,0,.02,0,.03,0,1.74,1.51,3.11,3.26,3.11h8.58s0,0,0,0H-1.95v-113.18H1.95V-28.35h29.37,0s8.58,0,8.58,0c1.74,0,3.25-1.37,3.26-3.11,0-.01,0-.02,0-.03,0-3.73-3.24-6.7-7.06-6.24ZM-31.35-28.36l-.05-.03s.04-.1.07-.14l-.02.17ZM31.35-28.36l-.02-.17s.04.1.07.14l-.05.03Z"/>
  </g>
</svg>